<svg xmlns="http://www.w3.org/2000/svg" xmlns:xlink="http://www.w3.org/1999/xlink" version="1.1" x="0px" y="0px" viewBox="0 0 500 500" style="enable-background:new 0 0 500 500;" xml:space="preserve">
<style xmlns="http://www.w3.org/2000/svg" type="text/css">
	.st0{fill:#CCE9FF;}
	.st1{clip-path:url(#SVGID_2_);fill:#BBE5FF;}
	.st2{clip-path:url(#SVGID_2_);fill:#F7F7F7;}
	.st3{clip-path:url(#SVGID_2_);fill:#FFBE58;}
	.st4{clip-path:url(#SVGID_2_);fill:#FFFAEF;}
	.st5{clip-path:url(#SVGID_2_);}
	.st6{fill:#2994F3;}
	.st7{fill:#D3D3D3;}
	.st8{fill:#1E0F00;}
	.st9{fill:#0E538D;}
	.st10{opacity:0.2;fill:#FFFAEF;}
	.st11{opacity:0.2;}
	.st12{fill:#FFFAEF;}
	.st13{fill:#EF9A9B;}
	.st14{fill:#42394A;}
	.st15{fill:#FEBE56;}
	.st16{fill:#E8A442;}
	.st17{fill:#E57373;}
	.st18{fill:#FFFFFF;}
	.st19{fill:#BB545B;}
	.st20{fill:#CBE9FF;}
</style>
<g xmlns="http://www.w3.org/2000/svg" id="BACKGROUND">
</g>
<g xmlns="http://www.w3.org/2000/svg" id="OBJECTS">
	<g>
		<path class="st0" d="M396.9,143.5c-33,6.4-10.9-57.7-45-89.2c-27.1-25.1-79.5-41.8-151.6,37.3c-31.3,34.3-26.4-29-74.4-24.1    c-48,5-162.4,224.4-19.8,214.3c64.4-4.6,38.6,49.9,83,62.2c85.6,23.7,90.6-46.5,125.7-51.4c29.5-4.1,15.8,137.7,118.3-1.6    C466,246.1,498.1,123.9,396.9,143.5z"/>
		<g>
			<defs>
				<path id="SVGID_1_" d="M396.9,143.5c-33,6.4-10.9-57.7-45-89.2c-27.1-25.1-79.5-41.8-151.6,37.3c-31.3,34.3-26.4-29-74.4-24.1      c-48,5-162.4,224.4-19.8,214.3c64.4-4.6,38.6,49.9,83,62.2c85.6,23.7,90.6-46.5,125.7-51.4c29.5-4.1,15.8,137.7,118.3-1.6      C466,246.2,498.1,123.9,396.9,143.5z"/>
			</defs>
			<clipPath id="SVGID_2_">
				<use xmlns:xlink="http://www.w3.org/1999/xlink" xlink:href="#SVGID_1_" style="overflow:visible;"/>
			</clipPath>
			<path class="st1" d="M38,208.4c-5.9,42.7,9.3,77.5,68,73.4c64.4-4.6,38.6,49.9,83,62.2c85.6,23.7,90.6-46.5,125.7-51.4     c29.5-4.1,15.8,137.7,118.3-1.6c14.1-19.1,28-52.3,31.4-82.6H38z"/>
			<path class="st2" d="M459,178.8c0,0-73.5,2.7-76.6,0c-3.2-2.7,12.7-0.5,16.7-2.7c4.1-2.3,8.1-12.9,14.5-11     c6.3,1.9,3.4,8.7,8.5,2.4c5.1-6.3,11.1-28.6,22.3-23.1c11.3,5.5,7.1,11.3,13.5,13.1c6.4,1.8,7-4.5,11.2,0     c4.2,4.5,3,12.6,5.9,12.9c2.9,0.3,2.1-5.6,9.9-2.4c7.9,3.2,3.3,5.4,9.4,5.4s22.6,3.6,19.5,4.1S463.9,178.6,459,178.8z"/>
			<path class="st2" d="M191.1,182c0,0,62.4-0.4,63.2-0.9c0.7-0.5-3.8,0-11.6-2.2c-7.8-2.2-4.1-11.4-12.6-11.1     c-8.5,0.3-5.3,9.5-13,8.9s-4.5-7.2-10.6-6.1c-6.1,1.1-1.5,8.8-6.6,8.3C194.8,178.3,167.3,182.2,191.1,182z"/>
			<path class="st2" d="M323.3,116.4c0,0,62.4-0.4,63.2-0.9c0.7-0.5-3.8,0-11.6-2.2c-7.8-2.2-4.1-11.4-12.6-11.1     c-8.5,0.3-5.3,9.5-13,8.9c-7.7-0.6-4.5-7.2-10.6-6.1c-6.1,1.1-1.5,8.8-6.6,8.3C327,112.7,299.6,116.6,323.3,116.4z"/>
			<path class="st2" d="M18,173.1c0,0,62.4-0.4,63.2-0.9c0.7-0.5-3.8,0-11.6-2.2c-7.8-2.2-4.1-11.4-12.6-11.1s-5.3,9.5-13,8.9     s-4.5-7.2-10.6-6.1s-1.5,8.8-6.6,8.3C21.7,169.5-5.8,173.3,18,173.1z"/>
			<circle class="st3" cx="268.9" cy="146.1" r="34.3"/>
			<path class="st2" d="M341.1,94.8c0,0-98.1,3.6-102.3,0c-4.2-3.6,16.9-0.6,22.3-3.6c5.4-3,10.9-17.2,19.3-14.6     c8.5,2.5,4.5,11.6,11.3,3.1s14.8-38.1,29.8-30.8s9.5,15.1,18,17.6c8.5,2.4,9.4-6,15,0s4,16.8,7.8,17.2c3.8,0.4,2.8-7.5,13.3-3.3     c10.5,4.2,4.4,7.2,12.6,7.2s30.1,4.8,26.1,5.4C410.3,93.6,347.7,94.6,341.1,94.8z"/>
			<path class="st2" d="M118.9,126.7c0,0-56.3,2.1-58.7,0c-2.4-2.1,9.7-0.3,12.8-2.1s6.2-9.9,11.1-8.4c4.9,1.5,2.6,6.7,6.5,1.8     c3.9-4.9,8.5-21.9,17.1-17.7s5.5,8.7,10.3,10.1c4.9,1.4,5.4-3.5,8.6,0c3.2,3.5,2.3,9.6,4.5,9.9s1.6-4.3,7.6-1.9     c6,2.4,2.5,4.2,7.2,4.2s17.3,2.8,15,3.1S122.7,126.6,118.9,126.7z"/>
			<path class="st4" d="M281.1,213.1c0,0,10.2,0,7.9,0.7C286.3,214.6,278.8,213.5,281.1,213.1z"/>
			<path class="st4" d="M291.7,213.1c0,0,10.2,0,7.9,0.7C296.9,214.6,289.4,213.5,291.7,213.1z"/>
			<path class="st4" d="M300.4,211.6c0,0,10.2,0,7.9,0.7C305.6,213.1,298.1,212,300.4,211.6z"/>
			<path class="st4" d="M275.7,215.7c0,0,10.2,0,7.9,0.7C280.9,217.2,273.4,216.1,275.7,215.7z"/>
			<path class="st4" d="M266.3,214.7c0,0,10.2,0,7.9,0.7C271.5,216.2,264,215.1,266.3,214.7z"/>
			<path class="st4" d="M253.8,217.2c0,0,10.2,0,7.9,0.7C259,218.7,251.5,217.6,253.8,217.2z"/>
			<path class="st4" d="M245.9,213.6c0,0,10.2,0,7.9,0.7C251,215.1,243.6,214,245.9,213.6z"/>
			<path class="st4" d="M230.5,213.7c0,0,10.2,0,7.9,0.7C235.7,215.3,228.2,214.1,230.5,213.7z"/>
			<path class="st4" d="M222.4,213.2c0,0,7,0,5.4,0.7C225.9,214.8,220.8,213.6,222.4,213.2z"/>
			<path class="st4" d="M239.2,211.6c0,0,7,0,5.4,0.7C242.7,213.1,237.7,212,239.2,211.6z"/>
			<path class="st4" d="M278.7,210.2c0,0,7,0,5.4,0.7C282.3,211.7,277.2,210.6,278.7,210.2z"/>
			<path class="st4" d="M284.7,218.5c0,0,7,0,5.4,0.7C288.2,220.1,283.1,218.9,284.7,218.5z"/>
			<path class="st4" d="M270.5,211.1c0,0,7,0,5.4,0.7C274,212.7,268.9,211.5,270.5,211.1z"/>
			<path class="st4" d="M260,210.2c0,0,7,0,5.4,0.7C263.6,211.7,258.5,210.6,260,210.2z"/>
			<path class="st4" d="M306.3,215.2c0,0,7,0,5.4,0.7C309.8,216.7,304.7,215.6,306.3,215.2z"/>
			<path class="st4" d="M289.9,211.1c0,0,7,0,5.4,0.7C293.5,212.7,288.4,211.5,289.9,211.1z"/>
			<path class="st4" d="M247.1,210.8c0,0,6.9-0.4,5.4,0.4C250.7,212.1,245.6,211.3,247.1,210.8z"/>
			<path class="st4" d="M227.4,211.1c0,0,7,0,5.4,0.7C230.9,212.7,225.9,211.5,227.4,211.1z"/>
			<path class="st4" d="M239,217.2c0,0,10.2,0,7.9,0.7C244.2,218.7,236.7,217.6,239,217.2z"/>
			<path class="st4" d="M267,219c0,0,10.2,0,7.9,0.7C272.2,220.6,264.8,219.4,267,219z"/>
			<path class="st4" d="M293,217.7c0,0,10.2,0,7.9,0.7C298.2,219.2,290.7,218,293,217.7z"/>
			<path class="st4" d="M257,212.9c0,0,10.2-0.7,8,0.1C262.3,214,254.8,213.4,257,212.9z"/>
			<g class="st5">
				<path class="st6" d="M453.2,312.1c-2.1-3-16.2-55.1-29.1-81.7l4.6-1.5c0,0,21,39.2,28.1,71.7L453.2,312.1z"/>
				<path class="st6" d="M459.1,296.8c-0.5-9.8-0.6-74.9-19.7-109l4.8,0.4c0,0,22,31.1,27.8,100.6L459.1,296.8z"/>
				<path class="st6" d="M426,229c0.1-1.2-10.4,0.2-14.4,6.2s-0.2,35.5-0.2,35.5s5.7-13.7,5.1-15.2c-0.6-1.5-0.8-3.2-0.8-3.2      s2.7,1.1,2.8-0.2C418.5,250.8,425.7,232.2,426,229z"/>
				<path class="st6" d="M428.7,228.9c1.6-0.2-20.4-7.1-27-3.2c-6.6,4-6.4,28.3-5.9,27.5c0.5-0.8,3-7.7,6.7-12.7s6.3-9.5,6.3-9.5      S427,229.1,428.7,228.9z"/>
				<path class="st6" d="M425.5,231.2c-2.2-0.3-7.1-19.5-1.7-20.7c5.3-1.2,23.3,2.7,21.5,3.1s-16.6,3.4-17,5.1      C427.9,220.2,428.2,231.5,425.5,231.2z"/>
				<path class="st6" d="M424.1,230.4c0,0,3.4-6.7,12.2-3.8c8.8,2.9,15.9,14,16.4,23.8l-10.2-10.2l2-2.2c0,0-2.1,1-3.5,1.3      C439.1,239.6,430.7,229.7,424.1,230.4z"/>
				<path class="st6" d="M424.5,227.5c0,0,7.1-10,14-9.1c6.8,0.9,16.8,8.6,19.7,13.5c0,0-13.6-5.2-16.4-5.8      C440.1,225.7,424.5,227.5,424.5,227.5z"/>
				<path class="st6" d="M441.7,187.3c0.6-1-9.6-4-15.7-0.1s-14.4,32.4-14.4,32.4s10.7-10.3,10.8-11.9c0-1.6,0.5-3.3,0.5-3.3      s2,2.1,2.6,1C426.1,204.3,440.2,190.1,441.7,187.3z"/>
				<path class="st6" d="M444.2,188.3c1.6,0.5-15.8-14.7-23.5-13.7s-17.2,23.4-16.4,22.9c0.7-0.5,5.9-5.8,11.2-9      c5.3-3.2,9.6-6.2,9.6-6.2S442.7,187.8,444.2,188.3z"/>
				<path class="st6" d="M440.4,189.1c-1.9-1.1,1.3-20.7,6.7-19.7c5.4,1,20.2,11.8,18.5,11.4c-1.7-0.4-16.6-3.5-17.6-2.2      C446.9,180,442.7,190.5,440.4,189.1z"/>
				<path class="st6" d="M440,188.5c0,0,8-9.4,14.7-7.9c6.7,1.5,16,10,18.5,15.1c0,0-13.1-6.3-15.9-7.2      C455.6,188,440,188.5,440,188.5z"/>
				<path class="st6" d="M440.9,188c0,0,12.1-2.2,16.3,3.3c4.2,5.4,6,17.9,4.7,23.4c0,0-6.1-13.2-7.7-15.6      C453.2,197.6,440.9,188,440.9,188z"/>
			</g>
			<g class="st5">
				<path class="st6" d="M57.8,320.2c2.1-4.6,7.5-78,17.9-117.1l-6.5-0.8c0,0-17.9,57.9-19.1,103.4L57.8,320.2z"/>
				<path class="st6" d="M72.7,201.8c-0.5-1.6,14-2.5,20.9,4.6c6.9,7,9.5,47.5,9.5,47.5S91.9,237,92.4,234.8      c0.5-2.2,0.3-4.6,0.3-4.6s-3.3,2.2-3.8,0.5C88.5,229.1,74,205.9,72.7,201.8z"/>
				<path class="st6" d="M69.1,202.3c-2.2,0.2,25.5-14.8,35.3-11.2s15.9,36.3,15.1,35.3c-0.8-0.9-6.1-9.5-12.2-15.3      c-6.2-5.8-11-11.1-11-11.1S71.4,202.1,69.1,202.3z"/>
				<path class="st6" d="M74,204.5c2.9-0.9,4.4-28-3-28.2s-30.5,9.7-28,9.7c2.4,0,23.2,0.3,24.1,2.4C68,190.4,70.5,205.7,74,204.5z"/>
				<path class="st6" d="M75.7,203.1c0,0-6.2-8.1-17.3-1.9c-11,6.1-17.7,22.9-15.8,36.2l11-16.3l-3.2-2.5c0,0,3,0.8,5,0.8      C58,219.4,66.6,203.9,75.7,203.1z"/>
				<path class="st6" d="M74.3,199.3c0,0-12.2-11.6-21.1-8.5c-8.9,3-20.3,15.9-22.9,23.2c0,0,16.9-10.5,20.5-12      C53,201,74.3,199.3,74.3,199.3z"/>
			</g>
		</g>
	</g>
	<path class="st7" d="M129.1,466.3c14.6-4.5,132-2.3,132.2,3.1C261.5,474.7,107,473.1,129.1,466.3z"/>
	<path class="st7" d="M240.4,403.2c16.9-3.9,152.1-1.9,152.3,2.7C393,410.4,215,409.1,240.4,403.2z"/>
	<g>
		<g>
			<path class="st8" d="M289.8,328.1c-0.7,0-1.3-0.6-1.3-1.3v-30.9c0-2.8-3.9-5.2-8.4-5.2c-4.6,0-8.4,2.4-8.4,5.2v30.9     c0,0.7-0.6,1.3-1.3,1.3s-1.3-0.6-1.3-1.3v-30.9c0-4.3,4.9-7.8,11-7.8c6.1,0,11,3.5,11,7.8v30.9     C291.1,327.5,290.5,328.1,289.8,328.1z"/>
			<path class="st8" d="M284.7,293.3h-9.2c-1.5,0-2.8-1.3-2.8-2.8l0,0c0-1.5,1.3-2.8,2.8-2.8h9.2c1.5,0,2.8,1.3,2.8,2.8l0,0     C287.5,292.1,286.3,293.3,284.7,293.3z"/>
			<g>
				<circle class="st8" cx="262.8" cy="400.9" r="5.7"/>
				<circle class="st8" cx="297.4" cy="400.9" r="5.7"/>
			</g>
			<path class="st9" d="M294.5,396.3h-28.7c-6.6,0-12-5.4-12-12v-46.8c0-6.6,5.4-12,12-12h28.7c6.6,0,12,5.4,12,12v46.8     C306.5,390.9,301.1,396.3,294.5,396.3z"/>
			<path class="st10" d="M280.1,387.7L280.1,387.7c-1,0-1.7-0.8-1.7-1.7v-50.1c0-1,0.8-1.7,1.7-1.7h0c1,0,1.7,0.8,1.7,1.7V386     C281.8,386.9,281.1,387.7,280.1,387.7z"/>
			<g class="st11">
				<path class="st12" d="M269.9,387.7L269.9,387.7c-1,0-1.7-0.8-1.7-1.7v-50.1c0-1,0.8-1.7,1.7-1.7l0,0c1,0,1.7,0.8,1.7,1.7V386      C271.6,386.9,270.8,387.7,269.9,387.7z"/>
				<path class="st12" d="M290.3,387.7L290.3,387.7c-1,0-1.7-0.8-1.7-1.7v-50.1c0-1,0.8-1.7,1.7-1.7l0,0c1,0,1.7,0.8,1.7,1.7V386      C292.1,386.9,291.3,387.7,290.3,387.7z"/>
			</g>
		</g>
		<g>
			<path class="st13" d="M284,285.2c0,0,4.9-3.7,7.4-7.7c0,0,3,2.7,3.1,4.6s-5.6,8.1-7.4,8.1C286.2,290.2,284,285.2,284,285.2z"/>
			<path class="st13" d="M284,285.2c0,0-8.6-0.9-9.1,7.8c-0.5,8.1,5-2.6,12.2-2.7C289.5,290.2,289.8,286.8,284,285.2z"/>
			<path class="st8" d="M352,158.9c0,0,7.1,4,8.5,10.6c1.5,6.6-2.7,9.8-3.3,9.9S347.4,160,352,158.9z"/>
			<g>
				<path class="st12" d="M389.4,202.4H382c-0.5,0-1,0.4-1,1v16c0,0.5,0.4,1,1,1h7.3c0.5,0,1-0.4,1-1v-16      C390.3,202.9,389.9,202.4,389.4,202.4z"/>
				<circle class="st14" cx="382.9" cy="204.2" r="0.8"/>
			</g>
			<path class="st8" d="M358.9,393.5c0.6-0.1-0.5,10.3,1.1,11c1.6,0.7,17.8,0.4,18-0.2c0.3-0.6-7.9-2.8-9.6-4.8     c-1.2-1.4-1.4-5.7-1.4-5.7S358.2,393.6,358.9,393.5z"/>
			<path class="st8" d="M318.5,382.9c0.5,0.3-7.3,10.2-6.5,11.8c0.8,1.6,13.2,9.2,13.8,9c0.6-0.3-4.1-7.4-4.1-9.9     c0-1.9,2.7-5.2,2.7-5.2S317.9,382.6,318.5,382.9z"/>
			<path class="st15" d="M369.7,287.1c0,0,11.4,41.3,10.6,50.3c-0.8,9-7.2,58.9-7.2,58.9h-17.3c0,0,6.4-57.7,6.1-62.2     c-0.3-4.5-8.2-29.6-9.7-29.4s-1.5,0.1-1.5,0.1s-1.6,34.4-3.2,42.5c-1.5,8.1-21.6,46-21.6,46s-13.7-5.1-13.8-7.8     s16.6-35.1,17.9-41.5c1.3-6.4-4.1-53.1-4.1-53.1L369.7,287.1z"/>
			<path class="st13" d="M394.1,218.4c0,0-3.3-10.3-12.7-8.8c-6.6,1.1,6.9,6.7,8.4,10.6c1,2.5,9.1,30.9-2.6,28.7     c-11.7-2.2-19.5-36.6-22.5-39.4c-3-2.8-13,6.1-13,6.1s11.8,32,29.7,37.8C399.4,259.5,413.6,241.9,394.1,218.4z"/>
			<path class="st9" d="M388.6,221.1c0,0,6.4-4.3,8.6-2.4c2.2,1.9,16.8,28.5-3,37.4c-18.1,8.2-32.9-18.9-32.9-22.5     s2.9-27.9,4.8-25.9c2.2,2.3,12.2,38.5,22,36C398,241.3,386.8,223,388.6,221.1z"/>
			<path class="st9" d="M321.9,291.2c0,0-0.3-78.3,4.9-85c5.3-6.7,37.4-6.7,40,3c6,22.7,6.7,76.9,5.9,82     C372.8,291.2,342.1,292.8,321.9,291.2z"/>
			<path class="st13" d="M339.8,184.5c0,0-2.2-6.7-5.1-7.2c-2.9-0.4-2.4,7,1.6,9.4C340.2,189.2,339.8,184.5,339.8,184.5z"/>
			<path class="st13" d="M336.3,167.5c0,0-5.7,26.7,12.6,26.7c15.9,0,11.6-29.8,2.1-32.1C341.5,159.8,336.6,164.5,336.3,167.5z"/>
			<path class="st13" d="M349.6,180.3c0,0-0.8,20,0,21.6c1.1,2.2-2.6,4.5-6.1,4.4c-5.1-0.2-5.1-4.4-5.1-4.4v-26.2     C338.4,175.7,346.8,176.5,349.6,180.3z"/>
			<path class="st8" d="M338,158.7c1.5-0.9,12.9-3.4,17.5,3.2c2.4,3.5,1.1,10.8-9.8,7.7c-9.5-2.8-5.9,13.6-7.3,12.9     c-1.4-0.8-2.7-4.8-3.9-3c-1.2,1.8-0.4,6.3,3.9,8.3c0,0,0.2,2.2-0.5,2.2C328.2,190,322.8,167.9,338,158.7z"/>
			<path class="st8" d="M351.1,187.4c-1.5,0-1.9-1.3-1.9-1.3c0-0.1,0-0.2,0.1-0.3c0.1,0,0.2,0,0.3,0.1c0,0,0.4,1.1,1.7,1     c1.3-0.1,1.3-0.9,1.3-0.9c0-0.1,0.1-0.2,0.2-0.2c0.1,0,0.2,0.1,0.2,0.2c0,0,0,1.2-1.7,1.3C351.3,187.4,351.2,187.4,351.1,187.4z"/>
			<path class="st8" d="M349.3,196c0.2,0,0.2-1.7,0-1.8c-0.2-0.1-6.7-0.5-8.6-3.1C338.9,188.4,340.1,196.5,349.3,196z"/>
			<path class="st8" d="M342.2,167.6c0,0-3.8,0.4-3.2,8.2c0.2,3.3,1.2,14.4,3.5,14.3c2.3-0.1,4.6-4.6,8.6-4.9     c4.1-0.3,6.7,1.3,6.9,2.8c0.3,2.1,0,10.9-6.9,11.3c-10,0.6-12.7-7.7-13.3-17.3C337.1,172.3,336.9,167.1,342.2,167.6z"/>
			<path class="st9" d="M336,202.3c-8,0.6-17,0.7-24.1,24.2c-2.4,8.1-3.5,27.2-13.1,39.5c-9.3,11.8-13.2,16.1-13.2,16.1     s1.4,6.3,6.4,8s13.6-8.3,17.5-13.7c14.6-19.9,14.9-38.7,18.2-42.7c3.2-4,3.9-8.6,3.9-8.6L336,202.3z"/>
		</g>
		<path class="st8" d="M342.5,158.3c0,0-5.5-7.8-10.8-4.8s-8.1,14.3-1.4,14.6c6.7,0.3,6.4-2.5,6.4-2.5L342.5,158.3z"/>
	</g>
	<g>
		<path class="st8" d="M155.6,190.2c0,0-20.7-10.8-26.2,14.7s-5,60.9,20.4,57.6c25.4-3.3,21.8-43,18.8-56.2    C165.6,193,155.6,190.2,155.6,190.2L155.6,190.2z"/>
		<g>
			<path class="st8" d="M235.6,378.8c-0.8,0-1.5-0.7-1.5-1.5v-36c0-3.3-4.5-6-9.8-6s-9.8,2.8-9.8,6v36c0,0.8-0.7,1.5-1.5,1.5     s-1.5-0.7-1.5-1.5v-36c0-5,5.7-9,12.8-9c7.1,0,12.8,4.1,12.8,9v36C237.1,378.1,236.4,378.8,235.6,378.8z"/>
			<path class="st8" d="M229.7,338.4h-10.8c-1.8,0-3.3-1.5-3.3-3.3l0,0c0-1.8,1.5-3.3,3.3-3.3h10.8c1.8,0,3.3,1.5,3.3,3.3l0,0     C232.9,336.9,231.5,338.4,229.7,338.4z"/>
			<g>
				<circle class="st8" cx="204.2" cy="463.6" r="6.7"/>
				<circle class="st8" cx="244.4" cy="463.6" r="6.7"/>
			</g>
			<path class="st15" d="M243,458.2h-37.4c-6.6,0-12-5.4-12-12v-58.4c0-6.6,5.4-12,12-12H243c6.6,0,12,5.4,12,12v58.4     C255,452.8,249.6,458.2,243,458.2z"/>
			<path class="st16" d="M224.3,448.2L224.3,448.2c-1.1,0-2-0.9-2-2v-58.3c0-1.1,0.9-2,2-2l0,0c1.1,0,2,0.9,2,2v58.3     C226.3,447.3,225.4,448.2,224.3,448.2z"/>
			<g>
				<path class="st16" d="M212.4,448.2L212.4,448.2c-1.1,0-2-0.9-2-2v-58.3c0-1.1,0.9-2,2-2l0,0c1.1,0,2,0.9,2,2v58.3      C214.4,447.3,213.5,448.2,212.4,448.2z"/>
				<path class="st16" d="M236.2,448.2L236.2,448.2c-1.1,0-2-0.9-2-2v-58.3c0-1.1,0.9-2,2-2l0,0c1.1,0,2,0.9,2,2v58.3      C238.2,447.3,237.3,448.2,236.2,448.2z"/>
			</g>
		</g>
		<path class="st13" d="M177.6,267.8c0,0,5.5,19.4,9.2,27.6c9.3,20.3,33.5,31.1,33.5,31.1l-2.6,5.7c0,0-21.2-9.2-35.2-26.8    c-6.6-8.2-20.5-33.7-20.5-33.7S175.1,261.6,177.6,267.8z"/>
		<path class="st17" d="M112.1,338.7c0,0-2,6-1.2,10.8c0.8,4.8,5.8,9.7,7.8,9.5s-0.3-8.7,0.2-12.1c0.4-3.4-1.1-5.9-1.5-7.9    C116.7,337,112.1,338.7,112.1,338.7z"/>
		<path class="st17" d="M182.1,442.1l-0.9,14.8h-9.4c0,0,0.1-11.3-0.8-16.4C170.1,435.3,182.1,442.1,182.1,442.1z"/>
		<path class="st8" d="M171.8,454.9c0.6-0.1-0.6,12,1.3,12.8c1.9,0.8,20.7,0.5,21-0.2c0.3-0.7-9.2-3.3-11.2-5.6    c-1.4-1.7-1.6-6.6-1.6-6.6S171,455.1,171.8,454.9z"/>
		<path class="st17" d="M152,442.1l-0.9,14.8h-9.4c0,0,0.1-11.3-0.8-16.4C139.9,435.3,152,442.1,152,442.1z"/>
		<path class="st15" d="M216.9,323.7c0,0,1.7,0.5-3.3,8.9c-2.3,3.8-33.9-18-39.1-39.1c-2.1-8.4,0.5-37.7,0.5-37.7s14.4,37.4,18,44.5    C198.8,312,216.9,323.7,216.9,323.7z"/>
		<path class="st15" d="M121.6,417h53.6c0,0,6.4-84.6-5.9-94.4s-37.7-4.7-37.7-4.7L121.6,417z"/>
		<path class="st15" d="M162.5,242.7c0,0-2,21.1,1.3,30.5c3.3,9.5,0,135.3,1,139.1c1,3.8,16.5,3.7,17.5,4.7    c1.1,1-4.6-127.8-4.5-132.9c0.1-5.1-2.3-26.5-3.3-29.7C171.2,243.6,162.5,242.7,162.5,242.7z"/>
		<path class="st8" d="M131.6,318c0.8-3.1-8.5,22.1-5.7,41.8c2.8,19.8,12.9,69.1,15.5,85.8h10.4c0,0,2-31.4,2.8-48.3    c1.3-27.9-1.1-49.3-0.6-56.6h4.3c0,0,9.3,32.7,12.4,45.2c4.5,17.9-0.7,59.8-0.7,59.8h12.5c0,0,11.9-53.7,7-73.4    c-5.9-24.1-17.2-53.1-17.2-53.1L131.6,318z"/>
		<path class="st18" d="M139.3,242.7c3.5-2,17.6-2.5,23.2,0c5.6,2.5,10.3,77.6,10.3,77.6s-45.4,1.6-45.4-1.3s-1.6-66.2,1.8-70.9    C132.6,243.5,139.3,242.7,139.3,242.7z"/>
		<path class="st18" d="M162.4,284.2c0,0,14.5-4.6,10-15.1c-5.6-12.9-5.1-26.7-12.5-26.5C152.5,242.8,149.2,271.1,162.4,284.2z"/>
		<path class="st13" d="M160.2,198.5c0,0,4.7,33.1-16.6,33.1c-18.5,0-13.5-34.7-2.4-37.4C152.3,191.6,159.9,195.1,160.2,198.5z"/>
		<path class="st13" d="M142.8,215.5c0,0,0.9,23.3,0,25.2c-1.2,2.6,2.5,18.2,11.4,14.1c5.4-2.5,1.7-14.1,1.7-14.1v-30.5    C155.9,210.1,146.1,211,142.8,215.5z"/>
		<path class="st19" d="M143.2,233.7c-0.2,0-0.2-2,0-2.1c0.2-0.1,7.8-0.6,10-3.6C155.3,224.9,153.8,234.4,143.2,233.7z"/>
		<path class="st8" d="M141.7,454.9c0.6-0.1-0.6,12,1.3,12.8c1.9,0.8,20.7,0.5,21-0.2c0.3-0.7-9.2-3.3-11.2-5.6    c-1.4-1.7-1.6-6.6-1.6-6.6S140.9,455.1,141.7,454.9z"/>
		<path class="st8" d="M141.7,191.3c0,0-10.1,2.3-5.1,8.8c5,6.4,18.1,4,17.4,8.5s1,10.3,6.4,12.5c5.4,2.2,7.1-1.6,8.2-4.8    C171.9,207.2,164.4,182.4,141.7,191.3z"/>
		<path class="st20" d="M168.9,280.7c0,0-8.3,2.2-12.3,2.2c-4,0,5.6,3,9.9,1.3C170.9,282.4,168.9,280.7,168.9,280.7z"/>
		<path class="st20" d="M149.7,282.3c0,0-8.6,0-12.5-1c-3.9-1,4.6,4.3,9.3,3.8C151.2,284.6,149.7,282.3,149.7,282.3z"/>
		<path class="st15" d="M141,242c0,0,2.5,21.7-0.9,31.2c-3.3,9.5-8.5,115.3-3.9,142.3c0.7,3.9-13.6,0.5-14.6,1.5    c-1.1,1,4.6-127.8,4.5-132.9c-0.1-5.1-0.2-36,2-38.3C130.5,243.4,141,242,141,242z"/>
		<path class="st13" d="M154.2,220.4c0,0,2.6-7.8,6-8.3c3.4-0.5,2.8,8.2-1.8,11C153.8,225.8,154.2,220.4,154.2,220.4z"/>
		<path class="st15" d="M129.6,275.2c0,0-9.9,8-13.4,27.6c-2.3,13,1.8,35.8,2.5,37.8c1.1,3-9.1,6.8-10.5,4.6    c-1.3-2.2-10.2-29.9-7.4-47.8c4.8-30.7,24.3-53.5,32.5-53.5C140.1,244,134.7,267.1,129.6,275.2z"/>
		<path class="st13" d="M220.3,326.3c0,0,10-1.1,10.6,9c0.6,9.5-4.9-3.2-13.2-3.3C214.8,332,213.5,328.1,220.3,326.3z"/>
	</g>
</g>
<g xmlns="http://www.w3.org/2000/svg" id="DESIGNED_BY_FREEPIK_1_">
</g>
</svg>