<svg xmlns="http://www.w3.org/2000/svg" xmlns:xlink="http://www.w3.org/1999/xlink" version="1.1" id="Layer_2" x="0px" y="0px" viewBox="0 0 1080 1080" style="enable-background:new 0 0 1080 1080;" xml:space="preserve">
<style type="text/css">
	.st0{fill:#F0FAFF;}
	.st1{fill:#B0E1FF;}
	.st2{fill:#FFEFCC;}
	.st3{fill:#063649;}
	.st4{fill:#1D82AA;}
	.st5{fill:#0B577C;}
	.st6{fill:#F9CCA7;}
	.st7{fill:#F99621;}
	.st8{fill:#FFA42C;}
	.st9{fill:#FFD8BB;}
	.st10{fill:#FFAE4D;}
	.st11{fill:#2DA1C4;}
</style>
<g>
	<path class="st0" d="M383.3,321.2c-29.7,7-59.9,16.9-83.9,37.3c-24,20.4-40.9,53.4-35.7,85.1c6.9,42.3,50.2,75.2,41.5,117.7   c-6.2,30.4-37.2,48.1-65.8,53.7s-58.6,3.4-85.9,14.5c-41.2,16.8-68.1,60.4-84.5,104.1c-17.1,45.5-25.4,99.5-1.6,140.1   c29.5,50.4,94,59,150.3,61.4c75.1,3.2,150.3,4.2,225.5,5.2c164.8,2.2,329.6,4.4,494.5,6.6c17.7,0.2,36.1,0.3,52.2-8   c32-16.4,44-61.6,34.9-97.6c-9.1-36-33.9-64.3-59.1-89.7c-25.2-25.3-52.3-50-68.3-82.9c-16-32.9-18-77.2,5.3-105.9   c19.8-24.4,53-32.6,72-57.7c25-33,14.9-84.1-11.6-114.1C936.6,361,540.3,284,383.3,321.2z"/>
</g>
<g id="W3x93d.tif">
	<g>
		<g>
			<path class="st1" d="M434.5,524.7c-1.9,3-5.1,0.7-7.6-0.1c-21.3-6.9-42.8-13-64.8-16.6c-31.5-5.2-59,4.1-82.9,25.1     c3.6-1.4,7.2-3,10.8-4.3c34.2-12.5,64.5-4.8,91.1,18.7c21.2,18.7,32.1,43.3,37.1,70.7c0.2,1.3,0.5,2.5,0.4,3.8     c-0.1,2.9,1.7,6.8-1.7,8.2c-2.9,1.2-4.5-2.6-6.4-4.4c-12.7-12.3-23.7-26.3-36.7-38.5c-18.9-17.8-39.9-30.2-66.2-32.4     c-6.2-0.5-12.1,0.9-18.2,0.9c-1.7,0-4-0.4-4.7,1.6c-0.7,2.1,1.5,2.9,2.8,4c22,19.8,16.6,50.2,1.7,67.1c-0.6,0.7-1.6,1.1-2.6,1.7     c-2-4.2-1.8-8.1-1.5-12.2c0.7-9.6,1.3-19.2-0.8-28.8c-2.5-11.6-9.7-20-18.9-26.7c-6.4-4.7-12.5-2.6-15.7,5     c-14.8,34.4-25,73.2-34.8,149.3c-12.3,95.4-10.1,184.6-10.2,209.1c0,4.4,0.1,8.7,0.3,13.1h-49.4c0.3-3.2,0.5-6.3,0.7-9.5     c1.8-30.5,4.2-121.6,27.1-223.5c19.1-85.2,34.7-111.6,55.1-143.1c0.9-1.4,3-2.8,1.5-4.6c-1.2-1.5-3.3-0.6-5.1-0.6     c-16.5,0.4-28.6,9.1-39.1,20.8c-2.9,3.2-5.7,6.5-8.7,9.6c-1.3,1.4-2.7,3.7-5,2.3c-2-1.3-1.1-3.7-0.8-5.6     c2.5-19.8,18.1-37.6,37.5-42.6c1.4-0.4,2.8-0.8,5.3-1.5c-12-12-26.2-18.2-41.2-22.9c-21.5-6.8-42.7-2-63.9,2.4     c-14.7,3-28.8,8-43.2,12.3c-2.1,0.6-4.8,2.1-6.4,0c-1.7-2.3,0.8-4.2,2.1-5.9c21.7-29.3,51.3-46.1,87-48.2     c31.7-1.9,58.2,11.5,76.7,38.6c2.1,3.1,3.6,6.6,7.9,9.8c-1.4-14.3-5.8-26.4-12.1-37.9c-12.5-22.7-33.3-35.7-55.3-47.1     c-12.6-6.5-25.4-12.6-38.1-19c-1.5-0.8-3.8-1.3-3.8-3.3c0-2.3,2.4-2.3,4-2.7c35.7-9.9,89.7,3.1,114.2,37.8     c9.9,14,14.2,29.5,16.3,46.1c0.2,1.9-0.6,4.1,1.9,6.1c11.6-16.7,27.5-27.1,46.9-32.8c15-4.5,30.1-4.3,45.1-1.1     c29,6.2,52,21.9,70.1,45.2C433.5,520,436,522.4,434.5,524.7z"/>
		</g>
	</g>
</g>
<path class="st2" d="M1010,957H86.1c-20.4,0-24.2-29.1-4.5-34.3c89.5-23.6,267.2-39.7,471.9-39.7c196.5,0,368.3,14.8,460.8,36.9  C1036,925.1,1032.3,957,1010,957z"/>
<g>
	<g>
		<circle class="st3" cx="833.5" cy="915.5" r="14"/>
	</g>
	<g>
		<circle class="st3" cx="898" cy="916" r="14"/>
	</g>
	<g>
		<path class="st4" d="M916,909l-85.5-38.5c-6.6,0-12-5.4-12-12L754,742c0-6.6,35.9-49.5,42.5-49.5h112c6.6,0,12,5.4,12,12l34,154    C954.5,865.1,922.6,909,916,909z"/>
	</g>
	<g>
		<path class="st5" d="M862.4,748.5h-86.5l-34.3-149h86.5L862.4,748.5z M781.5,741.5h72.2l-31.1-135h-72.2L781.5,741.5z"/>
	</g>
	<g>
		<path class="st5" d="M829,609h-89c-3.3,0-6-2.7-6-6l0,0c0-3.3,2.7-6,6-6h89c3.3,0,6,2.7,6,6l0,0C835,606.3,832.3,609,829,609z"/>
	</g>
	<g>
		<path class="st6" d="M740,452l47,128l-23,8c0,0-58-120-58-128S740,452,740,452z"/>
	</g>
	<g>
		<path class="st6" d="M526,405c-15,25-80,109,31,161c6-26,5.5-23.8,5.5-23.8S494,531,551,432C532,414,526,405,526,405z"/>
	</g>
	<g>
		<path class="st7" d="M580.5,334c-17.6,5-53.8,32-70.5,82c13.2,25,46.7,29,46.7,29s35.3-76,35.3-78S580.5,334,580.5,334z"/>
	</g>
	<g>
		<g>
			<g>
				<path class="st6" d="M549,657l22,250c0,0,17,6,23,3c1-11,12-250,12-250L549,657z"/>
			</g>
			<g>
				<path class="st6" d="M598,937c0,0-89,2-88-5c3.7-1.1,12.8-4.6,22.9-8.6c1-0.4,2-0.8,3-1.2C552.7,915.5,571,908,571,908l-0.3-5.7      l0-0.4L594,908l3,24L598,937z"/>
			</g>
		</g>
		<g>
			<path class="st8" d="M598,937c0,0-89,2-88-5h87L598,937z"/>
		</g>
		<g>
			<g>
				<path class="st8" d="M547.1,934l-2.2,2.1l-12-12.6c1-0.4,2-0.8,3-1.2L547.1,934z"/>
			</g>
		</g>
	</g>
	<g>
		<g>
			<g>
				<path class="st6" d="M689,667l4,240c0,0-17,6-23,3c-1-11-42-263-42-263L689,667z"/>
			</g>
			<g>
				<path class="st6" d="M666,937c0,0,89,2,88-5c-3.7-1.1-12.8-4.6-22.9-8.6c-1-0.4-2-0.8-3-1.2C711.3,915.5,693,908,693,908      l0.3-5.7l0-0.4L670,908l-3,24L666,937z"/>
			</g>
		</g>
		<g>
			<path class="st8" d="M666,937c0,0,89,2,88-5h-87L666,937z"/>
		</g>
		<g>
			<g>
				<path class="st8" d="M716.9,934l2.2,2.1l12-12.6c-1-0.4-2-0.8-3-1.2L716.9,934z"/>
			</g>
		</g>
	</g>
	<g>
		<path class="st5" d="M679,543l21,146c0,0-65,8-70,4s-32-166-32-166L679,543z"/>
	</g>
	<g>
		<path class="st5" d="M564,536c-7,38-22,157-22,157s61,8,68,2s6-168,6-168L564,536z"/>
	</g>
	<g>
		<path class="st8" d="M658,330c28,9,66,21,83,73s22,49,22,49s-52,34-57,27s-17-42-17-42l-7,123l-63.3-3l-7.7-27l-4.7,26.4L557,554    V400l22-66L658,330z"/>
	</g>
	<g>
		<path class="st6" d="M662.8,300.4l-3.4,35.4c0,0-8.3,14.1-12.4,16.2c-8.8,17.8-17.7,50.9-19.1,59.2c-1.1,6.7-18.6,70.4-17.9,73.8    c-0.7-15.8,6.3-64.2,5.6-71.1C615.2,409.5,627,355,627,355l0.9-22.6l0.7-17.8L662.8,300.4z"/>
	</g>
	<g>
		<path class="st5" d="M615.6,250.9c-4.1,5.5-8.9,19.2-2.1,26c6.8,6.8,17.8,0,17.1-1.4c-0.7-1.4-1.4-25.3-1.4-25.3L615.6,250.9z"/>
	</g>
	<g>
		<path class="st5" d="M678.4,252.7c7,8.5-2.6,38-2.6,38l-9.6,2.1l-9.6-26.7l8.9-11.6L678.4,252.7z"/>
	</g>
	<g>
		<path class="st9" d="M669.7,282.4c0,20-19.5,39.7-35.6,39.7c-27.4,0-25-26.9-21.2-46.6c3.4-17.8,20.2-28.1,36.3-28.1    S669.7,262.4,669.7,282.4z"/>
	</g>
	<g>
		<path class="st5" d="M645,266.9c-2.3-0.5-4.6-1.2-6.9-2c-15.5-5.4-35.6-11.1-26.6-24.3c9.6-14,30.1-12.4,30.1-12.4    s-6.2,6.6-3.4,9.9c2.7,3.3,41.8,9.1,41.8,17.3C680,255.5,680.6,274.5,645,266.9z"/>
	</g>
	<g>
		<path class="st5" d="M654.6,261.9c1.4,10.3,0.7,21.2,5.5,24c4.8,2.7,1.4,10.3,1.4,10.3l4.4,2c0,0,7.9-13.6,7.2-17.1    c-0.7-3.4-4.1-21.9-4.1-21.9s-6.6-0.7-7.1,0C661.5,259.8,654.6,261.9,654.6,261.9z"/>
	</g>
	<g>
		
			<ellipse transform="matrix(0.6463 -0.7631 0.7631 0.6463 13.3496 616.2222)" class="st9" cx="671.4" cy="293.7" rx="11.3" ry="6.5"/>
	</g>
	<g>
		<path class="st10" d="M656.5,426L656.5,426c-9.1,0-16.5-7.4-16.5-16.5V393h33v16.5C673,418.6,665.6,426,656.5,426z"/>
	</g>
	<g>
		<path class="st6" d="M561.5,532.5l-8.3,3c0,0-6.1,31-3.8,34c0.8,1,2.9,2.1,5.2,3c5.5,2.1,11.4-1.7,13.5-8.7l6-24.8L561.5,532.5z"/>
	</g>
	<g>
		<path class="st6" d="M763,577c-5,12-7,32-3,34s23,5,36-4c2-12-6.9-33.9-12.5-36.4C778,568,763,577,763,577z"/>
	</g>
	<g>
		<path class="st5" d="M911.5,910.5h-112c-6.6,0-12-5.4-12-12l-34-154c0-6.6,5.4-12,12-12h112c6.6,0,12,5.4,12,12l34,154    C923.5,905.1,918.1,910.5,911.5,910.5z"/>
	</g>
	<g>
		<path class="st11" d="M887,733.5c-0.6,0-1.1-0.2-1.6-0.6c-1.1-0.9-1.2-2.5-0.3-3.5l27-32c0.9-1.1,2.5-1.2,3.5-0.3    c1.1,0.9,1.2,2.5,0.3,3.5l-27,32C888.4,733.2,887.7,733.5,887,733.5z"/>
	</g>
</g>
<circle class="st8" cx="190.5" cy="178.5" r="106.5"/>
<path class="st1" d="M493.9,229c-1.2-2.9-2.4-5.8-4-8.4c-1.5-2.7-3.3-5.1-5.4-7.4l-1.6-1.6l-1.7-1.5c-0.5-0.5-1.2-0.9-1.8-1.4  l-0.9-0.7c-0.3-0.2-0.6-0.4-0.9-0.6c-0.6-0.4-1.2-0.8-1.9-1.2l-2-1.1l-2-0.9c-0.7-0.3-1.4-0.5-2.1-0.8c-0.7-0.3-1.4-0.5-2.1-0.7  l-1.1-0.3c-0.4-0.1-0.7-0.2-1.1-0.3c-1.4-0.4-2.9-0.7-4.4-1c-3-0.5-6-0.8-9-0.8c-3-0.1-6,0-9,0.3c-1.5,0.2-3,0.4-4.5,0.6  c-1.5,0.2-3,0.5-4.4,0.9l-2.6,0.6l-0.3-2.6c-0.1-0.6-0.2-1.3-0.3-2c-0.1-0.7-0.3-1.4-0.5-2.1c-0.4-1.4-0.8-2.7-1.3-4  c-1-2.7-2.4-5.1-4-7.4c-1.6-2.3-3.6-4.3-5.9-5.9c-2.3-1.6-4.8-3-7.5-3.9c-1.3-0.5-2.7-0.8-4.1-1.2c-1.4-0.2-2.8-0.5-4.3-0.6  c-2.9-0.4-5.8-0.3-8.8-0.2c-5.9,0.4-11.8,1.6-17.7,3c5.5-2.4,11.4-4.2,17.4-5.2c3-0.4,6.1-0.7,9.2-0.6c1.6,0,3.1,0.2,4.7,0.4  c1.5,0.3,3.1,0.6,4.6,1c3,0.9,6,2.2,8.7,4c2.7,1.8,5,4.1,7,6.6c2,2.5,3.6,5.4,4.8,8.3c0.6,1.5,1.1,3,1.5,4.5  c0.2,0.8,0.4,1.5,0.6,2.3c0.2,0.8,0.3,1.5,0.4,2.5l-2.9-2c1.7-0.4,3.2-0.7,4.8-0.9c1.6-0.2,3.2-0.4,4.8-0.6c3.2-0.3,6.4-0.4,9.6-0.2  c3.2,0.2,6.4,0.5,9.6,1.2c1.6,0.3,3.2,0.7,4.7,1.2c0.4,0.1,0.8,0.2,1.2,0.4l1.1,0.4c0.8,0.3,1.5,0.6,2.3,0.9  c6,2.5,11.3,6.6,15.2,11.7c1.9,2.6,3.6,5.3,4.8,8.2c0.7,1.4,1.1,2.9,1.6,4.4c0.3,0.7,0.4,1.5,0.6,2.3L493.9,229z"/>
<path class="st1" d="M1006.3,383.3c-2.2-1.3-4.4-2.6-6.8-3.6c-2.3-1-4.7-1.7-7.2-2.2l-1.8-0.3l-1.9-0.2c-0.6-0.1-1.2,0-1.9,0l-0.9,0  c-0.3,0-0.6,0-0.9,0.1c-0.6,0.1-1.2,0.1-1.8,0.2l-1.8,0.3l-1.8,0.4c-0.6,0.1-1.2,0.3-1.8,0.5c-0.6,0.2-1.2,0.4-1.8,0.6l-0.9,0.3  c-0.3,0.1-0.6,0.2-0.9,0.4c-1.2,0.4-2.3,1-3.4,1.5c-2.2,1.1-4.3,2.4-6.3,3.9c-2,1.4-4,3-5.8,4.7c-0.9,0.8-1.8,1.7-2.7,2.6  c-0.9,0.9-1.7,1.8-2.4,2.7l-1.4,1.7l-1.5-1.6c-0.3-0.3-0.8-0.8-1.2-1.2c-0.4-0.4-0.9-0.8-1.3-1.1c-0.9-0.7-1.9-1.4-2.9-2  c-2-1.3-4.1-2.2-6.3-2.9c-2.2-0.7-4.5-1-6.8-1c-2.3,0-4.6,0.4-6.9,1.1c-1.1,0.3-2.2,0.8-3.3,1.3c-1.1,0.6-2.1,1-3.2,1.7  c-2.1,1.2-4,2.7-5.9,4.2c-3.7,3.2-7,6.9-10.2,10.7c2.5-4.3,5.4-8.4,8.9-12.1c1.8-1.8,3.7-3.5,5.8-5c1-0.8,2.2-1.4,3.3-2.1  c1.2-0.6,2.3-1.2,3.6-1.6c2.5-0.9,5.1-1.5,7.7-1.6c2.7-0.1,5.3,0.2,7.9,0.9c2.6,0.7,5,1.8,7.3,3.1c1.1,0.7,2.2,1.4,3.3,2.2  c0.5,0.4,1,0.8,1.5,1.3c0.5,0.4,1,0.9,1.5,1.4l-2.9,0.1c0.9-1.1,1.8-2,2.7-3c0.9-0.9,1.9-1.9,2.9-2.7c2-1.8,4-3.4,6.2-4.9  c2.2-1.5,4.5-2.8,6.9-3.9c1.2-0.5,2.4-1.1,3.7-1.5c0.3-0.1,0.6-0.2,0.9-0.3l1-0.3c0.6-0.2,1.3-0.4,1.9-0.5  c5.2-1.3,10.7-1.2,15.8,0.2c2.5,0.8,5,1.7,7.2,3.1c1.2,0.6,2.2,1.4,3.3,2.1c0.5,0.4,1,0.8,1.5,1.2L1006.3,383.3z"/>
</svg>